<svg xmlns="http://www.w3.org/2000/svg" width="1200" height="675" viewBox="0 0 1200 675" role="img" aria-labelledby="title desc">
  <title id="title">CRM Platform</title>
  <desc id="desc">Vector artwork for a customer relationship management platform.</desc>
  <defs>
    <linearGradient id="bg" x1="0" y1="0" x2="1" y2="1">
      <stop offset="0%" stop-color="#0F172A"/>
      <stop offset="100%" stop-color="#1E293B"/>
    </linearGradient>
    <linearGradient id="card" x1="0" y1="0" x2="1" y2="1">
      <stop offset="0%" stop-color="#0EA5E9"/>
      <stop offset="100%" stop-color="#22D3EE"/>
    </linearGradient>
  </defs>

  <rect width="1200" height="675" fill="url(#bg)" rx="28"/>

  <rect x="84" y="84" width="1032" height="507" rx="24" fill="#0B1220" stroke="#334155" stroke-width="2"/>

  <rect x="140" y="150" width="290" height="120" rx="16" fill="url(#card)"/>
  <circle cx="188" cy="210" r="22" fill="#0B1220" opacity="0.9"/>
  <rect x="224" y="192" width="170" height="14" rx="7" fill="#0B1220" opacity="0.9"/>
  <rect x="224" y="215" width="120" height="10" rx="5" fill="#0B1220" opacity="0.6"/>

  <rect x="462" y="150" width="595" height="120" rx="16" fill="#111827" stroke="#334155"/>
  <rect x="494" y="186" width="260" height="12" rx="6" fill="#38BDF8"/>
  <rect x="494" y="210" width="410" height="10" rx="5" fill="#64748B"/>

  <rect x="140" y="304" width="916" height="88" rx="14" fill="#111827" stroke="#334155"/>
  <rect x="174" y="338" width="180" height="12" rx="6" fill="#22D3EE"/>
  <rect x="390" y="338" width="240" height="12" rx="6" fill="#64748B"/>
  <rect x="668" y="338" width="130" height="12" rx="6" fill="#64748B"/>

  <rect x="140" y="420" width="430" height="130" rx="16" fill="#111827" stroke="#334155"/>
  <rect x="604" y="420" width="452" height="130" rx="16" fill="#111827" stroke="#334155"/>

  <text x="150" y="106" fill="#E2E8F0" font-family="Space Mono, monospace" font-size="34" font-weight="700" letter-spacing="3">CRM PLATFORM</text>
</svg>
