<svg xmlns="http://www.w3.org/2000/svg" width="1200" height="675" viewBox="0 0 1200 675" role="img" aria-labelledby="title desc">
  <title id="title">Landing Page Builder</title>
  <desc id="desc">Vector artwork for a modular landing page builder interface.</desc>
  <defs>
    <linearGradient id="bg" x1="0" y1="0" x2="1" y2="1">
      <stop offset="0%" stop-color="#052E2B"/>
      <stop offset="100%" stop-color="#14532D"/>
    </linearGradient>
    <linearGradient id="hero" x1="0" y1="0" x2="1" y2="0">
      <stop offset="0%" stop-color="#10B981"/>
      <stop offset="100%" stop-color="#34D399"/>
    </linearGradient>
  </defs>

  <rect width="1200" height="675" fill="url(#bg)" rx="28"/>

  <rect x="84" y="84" width="1032" height="507" rx="24" fill="#082F27" stroke="#166534" stroke-width="2"/>

  <rect x="140" y="150" width="240" height="400" rx="16" fill="#0F3D2F" stroke="#22C55E"/>
  <rect x="170" y="188" width="180" height="10" rx="5" fill="#86EFAC"/>
  <rect x="170" y="214" width="140" height="10" rx="5" fill="#4ADE80"/>
  <rect x="170" y="260" width="180" height="42" rx="10" fill="#134E4A"/>
  <rect x="170" y="318" width="180" height="42" rx="10" fill="#134E4A"/>
  <rect x="170" y="376" width="180" height="42" rx="10" fill="#134E4A"/>

  <rect x="410" y="150" width="646" height="400" rx="16" fill="#0F3D2F" stroke="#22C55E"/>
  <rect x="446" y="186" width="574" height="120" rx="12" fill="url(#hero)"/>
  <rect x="474" y="338" width="300" height="14" rx="7" fill="#86EFAC"/>
  <rect x="474" y="368" width="470" height="10" rx="5" fill="#4ADE80"/>
  <rect x="474" y="402" width="210" height="38" rx="10" fill="#16A34A"/>

  <text x="150" y="106" fill="#DCFCE7" font-family="Space Mono, monospace" font-size="34" font-weight="700" letter-spacing="3">LANDING PAGE BUILDER</text>
</svg>
